<svg width="23" height="39" viewBox="0 0 23 39" fill="none" xmlns="http://www.w3.org/2000/svg">
<path d="M15.6748 25.7245C15.4993 25.656 3.96615 19.5823 3.79074 19.4909C3.04525 19.1713 2.40939 18.6004 1.97086 17.8469C0.918403 15.9517 1.53234 13.5313 3.35221 12.4353C4.60201 11.6818 6.07107 11.7275 7.23316 12.4581C7.38664 12.5266 18.4375 18.3264 18.6129 18.4406C18.7883 18.5091 18.9418 18.6004 19.1172 18.6917C19.8627 19.0114 20.4985 19.5823 20.9371 20.3358C21.9895 22.231 21.3975 24.6514 19.5776 25.7474C18.3278 26.5237 16.8368 26.4552 15.6748 25.7245Z" fill="#7693FF" fill-opacity="0.4"/>
<path d="M13.6356 12.0375C13.6677 12.5395 13.5154 13.0506 13.1673 13.454C12.4409 14.2958 11.1411 14.3523 10.2677 13.5986C9.72518 13.1305 9.46651 12.4637 9.52199 11.8231C9.51222 11.7229 9.56575 3.6303 9.57274 3.52925C9.54067 3.02733 9.69298 2.51621 10.041 2.11282C10.7675 1.27096 12.0673 1.21452 12.9407 1.9682C13.4832 2.43628 13.7419 3.10313 13.6864 3.74369C13.6978 3.86061 13.6426 11.9365 13.6356 12.0375Z" fill="#D6FF62"/>
<path d="M13.6356 36.0376C13.6677 36.5395 13.5154 37.0506 13.1673 37.454C12.4409 38.2958 11.1411 38.3523 10.2677 37.5986C9.72518 37.1305 9.46651 36.4637 9.52199 35.8231C9.51222 35.7229 9.56575 27.6303 9.57274 27.5293C9.54067 27.0273 9.69298 26.5162 10.041 26.1128C10.7675 25.271 12.0673 25.2145 12.9407 25.9682C13.4832 26.4363 13.7419 27.1031 13.6864 27.7437C13.6978 27.8606 13.6426 35.9365 13.6356 36.0376Z" fill="#D6FF62"/>
<path d="M6.50094 34.7663C5.71479 35.3055 4.73479 35.5534 3.74025 35.378C1.6647 35.0121 0.311698 32.9504 0.691415 30.7969C0.927239 29.4595 1.76207 28.3913 2.8589 27.8601C3.0126 27.747 16.2413 19.9824 16.4127 19.8958C17.1988 19.3566 18.1788 19.1087 19.1734 19.284C21.2489 19.65 22.6019 21.7117 22.2222 23.8652C21.9864 25.2026 21.1515 26.2708 20.0547 26.8019C19.8754 26.9339 6.67227 34.6796 6.50094 34.7663Z" fill="#86A0FE"/>
<path d="M6.50117 18.2944C5.71488 18.8344 4.73479 19.0828 3.74025 18.9074C1.68632 18.5453 0.308084 16.5003 0.692275 14.3214C0.928392 12.9823 1.76349 11.9127 2.86046 11.3807C3.0142 11.2673 16.2411 3.51331 16.4124 3.42652C17.1987 2.8865 18.1788 2.63808 19.1734 2.81344C21.2489 3.17942 22.6015 5.24328 22.2213 7.39944C21.9852 8.73853 21.1501 9.80819 20.0532 10.3402C19.8778 10.4497 6.66852 18.2303 6.50117 18.2944Z" fill="#86A0FE"/>
</svg>
